<?xml version="1.0" standalone="no"?><!DOCTYPE svg PUBLIC "-//W3C//DTD SVG 1.1//EN" "http://www.w3.org/Graphics/SVG/1.1/DTD/svg11.dtd"><svg t="1675225621748" class="icon" viewBox="0 0 1024 1024" version="1.1" xmlns="http://www.w3.org/2000/svg" p-id="9923" xmlns:xlink="http://www.w3.org/1999/xlink" width="64" height="64"><path d="M422.802153 3.351273c14.509149 0 26.272116 11.762967 26.272116 26.272116s-11.762967 26.272116-26.272116 26.272116H188.401105c-36.599622 0-69.892655 14.99136-94.04416 39.142866C70.20544 119.189876 55.21408 152.482909 55.21408 189.082531v244.965004c0 14.509149-11.762967 26.272116-26.272116 26.272116s-26.272116-11.762967-26.272117-26.272116V189.082531c0-51.105047 20.887738-97.544378 54.536378-131.19488C90.856727 24.239011 137.296058 3.351273 188.401105 3.351273h234.401048zM2.669847 594.78016c0-14.509149 11.762967-26.272116 26.272117-26.272116s26.272116 11.762967 26.272116 26.272116V835.248873c0 36.599622 14.99136 69.892655 39.142865 94.04416 24.151505 24.151505 57.444538 39.142865 94.04416 39.142865h234.401048c14.509149 0 26.272116 11.762967 26.272116 26.272117s-11.762967 26.272116-26.272116 26.272116H188.401105c-51.105047 0-97.544378-20.887738-131.19488-54.536378-33.64864-33.650502-54.536378-80.089833-54.536378-131.19488V594.78016z m586.560233 426.199971c-14.509149 0-26.272116-11.762967-26.272116-26.272116s11.762967-26.272116 26.272116-26.272117h245.337367c36.599622 0 69.892655-14.99136 94.04416-39.142865 24.151505-24.151505 39.142865-57.444538 39.142866-94.04416V594.78016c0-14.509149 11.762967-26.272116 26.272116-26.272116s26.272116 11.762967 26.272116 26.272116V835.248873c0 51.105047-20.887738 97.544378-54.536378 131.19488-33.650502 33.64864-80.089833 54.536378-131.19488 54.536378H589.23008z m431.068625-586.932596c0 14.509149-11.762967 26.272116-26.272116 26.272116s-26.272116-11.762967-26.272116-26.272116V189.082531c0-36.599622-14.99136-69.892655-39.142866-94.04416-24.151505-24.151505-57.444538-39.142865-94.04416-39.142866H589.23008c-14.509149 0-26.272116-11.762967-26.272116-26.272116S574.720931 3.351273 589.23008 3.351273h245.337367c51.105047 0 97.544378 20.887738 131.19488 54.536378 33.64864 33.650502 54.536378 80.089833 54.536378 131.19488v244.965004z" p-id="9924"></path><path d="M789.005033 346.54208V129.975389h19.705483v772.462778h-19.705483zM828.708305 346.54208V129.975389h65.681222v772.462778h-65.681222zM717.857513 346.54208V129.975389h13.136989v772.462778h-13.136989zM584.411695 346.54208V129.975389h65.681221v772.462778h-65.681221zM750.065105 347.666618V131.105513h13.13699v772.460916h-13.13699zM668.638487 346.54208V129.975389h26.273978v772.462778h-26.273978zM123.717818 345.944436V129.379607h26.273978v772.46464H123.717818zM173.850996 346.138065V129.575098h13.136989v772.460917h-13.136989zM213.898705 346.54208V129.975389h39.410968v772.462778h-39.410968zM280.218531 346.54208V129.975389h13.136989v772.462778h-13.136989zM309.175389 345.544145V128.979316h78.818211v772.462779h-78.818211zM523.116916 346.730124V130.167156h39.410968v772.462779h-39.410968zM461.824 346.730124V130.167156h13.136989v772.462779h-13.136989zM494.027869 346.138065V129.575098h13.136989v772.460917h-13.136989zM412.601251 346.730124V130.167156h26.273978v772.462779h-26.273978z" p-id="9925"></path></svg>