<?xml version="1.0" standalone="no"?><!DOCTYPE svg PUBLIC "-//W3C//DTD SVG 1.1//EN" "http://www.w3.org/Graphics/SVG/1.1/DTD/svg11.dtd"><svg fill="currentColor" t="1669970687086" class="icon" viewBox="0 0 1024 1024" version="1.1" xmlns="http://www.w3.org/2000/svg" p-id="28163" xmlns:xlink="http://www.w3.org/1999/xlink" width="200" height="200"><path d="M446.3 144.1L248.4 315c-1.7 0.7-3.3 1.9-4.5 3.4L78.5 459.6c-16.9 14.1-19.1 39.2-5 56.1 6.6 8.4 16.3 13.7 26.9 14.6 10.6 1 21.1-2.5 29.1-9.6l47.1-38.7 320.1-275.8c9.7-7.8 23.4-7.8 33.1 0L849.3 482l46.5 39.8c7.7 6.7 17.8 10 28 9 10.4-0.7 20-5.8 26.3-14 14.1-16.9 11.8-42-5-56.1L782.6 318.4c-1.2-1.5-2.7-2.6-4.5-3.4L580.2 144c-18.7-16.1-42.6-24.8-67.3-24.7-24.4 0.1-48.1 8.8-66.6 24.8z m0 0" p-id="28164" fill="#ffffff"></path><path d="M598.7 896.3c4.6 5 11.1 7.9 17.9 7.8h181.1c28.9-0.3 52.1-23.8 52.1-52.7V561.1l-320-273.5c-9.4-8.5-23.7-8.5-33.1 0L176.6 561.1v290.4c0 28.9 23.2 52.4 52.1 52.7h181.1c6.8 0 13.3-2.8 17.9-7.8 5-4.9 7.8-11.5 7.8-18.5V719.7c-0.1-13.8 5.2-27.1 14.9-37 9.7-9.9 22.9-15.5 36.7-15.7h52.1c13.8 0.1 27 5.8 36.7 15.7 9.7 9.9 15 23.2 14.9 37v158.1c0.1 7 3 13.6 7.9 18.5z" p-id="28165" fill="#ffffff"></path></svg>
