<?xml version="1.0" standalone="no"?><!DOCTYPE svg PUBLIC "-//W3C//DTD SVG 1.1//EN" "http://www.w3.org/Graphics/SVG/1.1/DTD/svg11.dtd"><svg fill="currentColor" t="1669973016847" class="icon" viewBox="0 0 1024 1024" version="1.1" xmlns="http://www.w3.org/2000/svg" p-id="53382" xmlns:xlink="http://www.w3.org/1999/xlink" width="200" height="200"><path d="M508.586667 226.986667c-64.853333 0-117.76 52.906667-117.76 117.76S443.733333 460.8 508.586667 460.8s117.76-52.906667 117.76-117.76-52.906667-116.053333-117.76-116.053333zM143.36 29.013333c-64.853333 0-117.76 52.906667-117.76 117.76s52.906667 117.76 117.76 117.76 117.76-52.906667 117.76-117.76-54.613333-117.76-117.76-117.76zM880.64 353.28c64.853333 0 117.76-52.906667 117.76-117.76S945.493333 119.466667 880.64 119.466667c-64.853333 0-117.76 52.906667-117.76 117.76s54.613333 116.053333 117.76 116.053333zM143.36 667.306667c-64.853333 0-117.76 52.906667-117.76 117.76 0 64.853333 52.906667 117.76 117.76 117.76s117.76-52.906667 117.76-117.76c-1.706667-64.853333-54.613333-117.76-117.76-117.76zM880.64 761.173333c-64.853333 0-117.76 52.906667-117.76 117.76s52.906667 117.76 117.76 117.76c64.853333 0 117.76-52.906667 117.76-117.76s-52.906667-117.76-117.76-117.76zM508.586667 568.32c-64.853333 0-117.76 52.906667-117.76 117.76s52.906667 117.76 117.76 117.76 117.76-52.906667 117.76-117.76-52.906667-117.76-117.76-117.76z" fill="#ffffff" p-id="53383"></path><path d="M144.622933 254.941867l56.388267-41.4208 276.821333 376.849066-56.3712 41.4208z" fill="#ffffff" p-id="53384"></path><path d="M548.590933 415.317333l57.326934-40.1408 276.992 395.6736-57.344 40.123734z" fill="#ffffff" p-id="53385"></path><path d="M172.612267 684.2368L413.013333 376.1152l55.176534 43.042133-240.401067 308.1216z" fill="#ffffff" p-id="53386"></path><path d="M547.822933 595.729067L829.201067 293.376l51.217066 47.684267L599.04 643.396267z" fill="#ffffff" p-id="53387"></path></svg>
