<?xml version="1.0" standalone="no"?><!DOCTYPE svg PUBLIC "-//W3C//DTD SVG 1.1//EN" "http://www.w3.org/Graphics/SVG/1.1/DTD/svg11.dtd"><svg t="1675505016371" class="icon" viewBox="0 0 1024 1024" version="1.1" xmlns="http://www.w3.org/2000/svg" p-id="3784" xmlns:xlink="http://www.w3.org/1999/xlink" width="64" height="64"><path d="M358.4 157.696c28.16 0 51.2 23.04 51.2 51.2v153.6c0 28.16-23.04 51.2-51.2 51.2H204.8c-28.16 0-51.2-23.04-51.2-51.2v-153.6c0-28.16 23.04-51.2 51.2-51.2h153.6m0-61.44H204.8c-62.464 0-112.64 50.176-112.64 112.64v153.6c0 62.464 50.176 112.64 112.64 112.64h153.6c62.464 0 112.64-50.176 112.64-112.64v-153.6c0-62.464-50.176-112.64-112.64-112.64zM819.2 157.696c28.16 0 51.2 23.04 51.2 51.2v153.6c0 28.16-23.04 51.2-51.2 51.2h-153.6c-28.16 0-51.2-23.04-51.2-51.2v-153.6c0-28.16 23.04-51.2 51.2-51.2h153.6m0-61.44h-153.6c-62.464 0-112.64 50.176-112.64 112.64v153.6c0 62.464 50.176 112.64 112.64 112.64h153.6c62.464 0 112.64-50.176 112.64-112.64v-153.6c0-62.464-50.176-112.64-112.64-112.64zM358.4 618.496c28.16 0 51.2 23.04 51.2 51.2v153.6c0 28.16-23.04 51.2-51.2 51.2H204.8c-28.16 0-51.2-23.04-51.2-51.2v-153.6c0-28.16 23.04-51.2 51.2-51.2h153.6m0-61.44H204.8c-62.464 0-112.64 50.176-112.64 112.64v153.6c0 62.464 50.176 112.64 112.64 112.64h153.6c62.464 0 112.64-50.176 112.64-112.64v-153.6c0-62.464-50.176-112.64-112.64-112.64zM614.4 679.936c-16.896 0-30.72-13.824-30.72-30.72v-30.72c0-16.896 13.824-30.72 30.72-30.72s30.72 13.824 30.72 30.72v30.72c0 16.896-13.824 30.72-30.72 30.72zM614.4 905.216c-16.896 0-30.72-13.824-30.72-30.72v-142.848c0-16.896 13.824-30.72 30.72-30.72s30.72 13.824 30.72 30.72v142.848c0 16.896-13.824 30.72-30.72 30.72zM742.4 813.056c16.896 0 30.72 13.824 30.72 30.72v30.72c0 16.896-13.824 30.72-30.72 30.72s-30.72-13.824-30.72-30.72v-30.72c0-16.896 13.824-30.72 30.72-30.72zM742.4 587.776c16.896 0 30.72 13.824 30.72 30.72v143.36c0 16.896-13.824 30.72-30.72 30.72s-30.72-13.824-30.72-30.72v-143.36c0-16.896 13.824-30.72 30.72-30.72zM870.4 715.264c-16.896 0-30.72-13.824-30.72-30.72v-66.048c0-16.896 13.824-30.72 30.72-30.72s30.72 13.824 30.72 30.72v66.048c0 16.896-13.824 30.72-30.72 30.72zM870.4 905.216c-16.896 0-30.72-13.824-30.72-30.72v-97.28c0-16.896 13.824-30.72 30.72-30.72s30.72 13.824 30.72 30.72v97.28c0 16.896-13.824 30.72-30.72 30.72z" fill="#5FB772" p-id="3785"></path></svg>