<?xml version="1.0" standalone="no"?><!DOCTYPE svg PUBLIC "-//W3C//DTD SVG 1.1//EN" "http://www.w3.org/Graphics/SVG/1.1/DTD/svg11.dtd"><svg fill="currentColor" t="1669976646779" class="icon" viewBox="0 0 1024 1024" version="1.1" xmlns="http://www.w3.org/2000/svg" p-id="77749" xmlns:xlink="http://www.w3.org/1999/xlink" width="200" height="200"><path d="M774.9632 152.1664C692.0192 69.2224 581.632 23.552 464.2816 23.552c-117.3504 0-227.7376 45.6704-310.6816 128.6144C-17.6128 323.3792-17.6128 602.112 153.6 773.3248c82.944 82.944 193.3312 128.6144 310.6816 128.6144 117.3504 0 227.7376-45.6704 310.6816-128.6144 171.2128-171.2128 171.2128-449.9456 0-621.1584z m-52.224 568.9344c-69.0176 69.0176-160.768 107.1104-258.4576 107.1104s-189.44-38.0928-258.4576-107.1104C63.488 578.7648 63.488 346.9312 206.0288 204.3904c69.0176-69.0176 160.768-107.1104 258.4576-107.1104S653.9264 135.3728 722.944 204.3904c142.336 142.5408 142.336 374.3744-0.2048 516.7104z m279.9616 229.7856l-137.216-137.216c-10.6496-10.6496-34.2016-16.384-52.0192 0-16.7936 15.36-10.6496 43.008 0 53.6576l137.216 137.216c5.3248 5.3248 33.3824 19.2512 53.248-1.4336 16.384-16.7936 9.6256-41.5744-1.2288-52.224z m0 0" p-id="77750" fill="#ffffff"></path></svg>
